<svg viewBox="0 0 42 40" xmlns="http://www.w3.org/2000/svg" xmlns:xlink="http://www.w3.org/1999/xlink" width="42.000000" height="40.000000" opacity="0.709999979" fill="none">
	<rect id="search" width="42.000000" height="40.000000" x="0.000000" y="0.000000" fill="rgb(255,255,255)" fill-opacity="0" />
	<path id="矢量 267" d="M27.125 23.3333L25.7425 23.3333L25.2525 22.8833C26.9675 20.9833 28 18.5167 28 15.8333C28 9.85 22.9075 5 16.625 5C10.3425 5 5.25 9.85 5.25 15.8333C5.25 21.8167 10.3425 26.6667 16.625 26.6667C19.4425 26.6667 22.0325 25.6833 24.0275 24.05L24.5 24.5167L24.5 25.8333L33.25 34.15L35.8575 31.6667L27.125 23.3333ZM16.625 23.3333C12.2675 23.3333 8.75 19.9833 8.75 15.8333C8.75 11.6833 12.2675 8.33333 16.625 8.33333C20.9825 8.33333 24.5 11.6833 24.5 15.8333C24.5 19.9833 20.9825 23.3333 16.625 23.3333Z" fill="rgb(68,68,68)" fill-rule="evenodd" />
</svg>
